<?xml version="1.0" encoding="utf-8"?>
<svg version="1.1" xmlns="http://www.w3.org/2000/svg" xmlns:xlink="http://www.w3.org/1999/xlink" x="0px" y="0px"
	 viewBox="0 0 1234 411.3" style="enable-background:new 0 0 1234 411.3;" xml:space="preserve">
<style type="text/css">
	.lg0{fill:#03423C;}
	.lg1{fill:#0675EF;}
	.lg2{fill:#00D540;}
	.lg3{fill:#CC8E06;}
	.lg4{fill:#F5F5F5;}
</style>
<g>
	<path class="lg0" d="M842,198.1v-80.6h23.3v10c2.6-4.5,6-7.7,10.1-9.6c4.1-1.9,8.6-2.9,13.4-2.9c1.7,0,3.3,0.1,4.7,0.3
		c1.4,0.2,2.8,0.4,4.2,0.6l-2.9,24c-1.7-0.6-3.5-1.1-5.4-1.4c-1.9-0.4-3.8-0.6-5.7-0.6c-5.4,0-9.8,1.6-13.2,4.7
		c-3.5,3.1-5.2,7.6-5.2,13.4v42H842z"/>
	<path class="lg0" d="M787.9,200.5c-8.7,0-16.4-1.9-23.1-5.8c-6.7-3.9-12-9-15.8-15.5c-3.8-6.5-5.7-13.6-5.7-21.4
		c0-5.7,1.1-11.1,3.3-16.2c2.2-5.2,5.3-9.7,9.3-13.6c4-4,8.7-7.1,14.1-9.4c5.4-2.3,11.4-3.4,17.9-3.4c8.7,0,16.3,1.9,23,5.8
		c6.7,3.9,11.9,9.1,15.7,15.6c3.8,6.4,5.7,13.5,5.7,21.3c0,5.6-1.1,11-3.3,16.2c-2.2,5.2-5.3,9.7-9.3,13.7c-3.9,3.9-8.6,7-14,9.3
		C800.4,199.4,794.4,200.5,787.9,200.5z M787.9,180.3c4.1,0,7.8-0.9,11-2.7c3.2-1.9,5.8-4.5,7.7-7.8c1.9-3.4,2.8-7.4,2.8-12
		c0-4.6-0.9-8.6-2.8-12c-1.8-3.4-4.3-5.9-7.6-7.7c-3.2-1.9-6.9-2.8-11.1-2.8c-4.1,0-7.9,0.9-11.2,2.8c-3.2,1.8-5.8,4.4-7.7,7.7
		c-1.8,3.3-2.7,7.3-2.7,12c0,4.6,0.9,8.6,2.8,12c1.9,3.3,4.4,6,7.7,7.8C780.1,179.4,783.8,180.3,787.9,180.3z"/>
	<path class="lg0" d="M654.1,198.1V83.3h23.3v51.8l-4.9-5.7c3.5-4.5,7.7-8,12.6-10.5c4.9-2.5,10.2-3.7,15.9-3.7
		c7.5,0,13.7,1.5,18.7,4.5c5,3,8.7,6.9,11.2,11.6c2.5,4.8,3.7,9.9,3.7,15.3v51.5h-23.3v-44.9c0-5-1.5-9-4.5-12.1
		c-3-3.1-7.1-4.7-12.3-4.8c-3.5,0-6.6,0.7-9.2,2.2c-2.6,1.4-4.5,3.5-5.9,6.3c-1.4,2.7-2.1,5.9-2.1,9.6v43.7H654.1z"/>
	<path class="lg0" d="M614.5,198.1V83.3h23.3v114.9H614.5z"/>
	<path class="lg0" d="M564.9,200.5c-8.8,0-16.5-1.8-23.1-5.3c-6.6-3.6-11.8-8.5-15.6-14.9c-3.7-6.4-5.6-13.9-5.6-22.4
		c0-6.2,1.1-11.9,3.2-17.1c2.2-5.2,5.2-9.7,9.1-13.5c3.9-3.8,8.5-6.8,13.8-8.9c5.3-2.1,11.1-3.2,17.5-3.2c7,0,13.1,1.2,18.5,3.7
		c5.4,2.4,9.9,5.9,13.5,10.3c3.6,4.4,6,9.5,7.4,15.4c1.4,5.9,1.6,12.3,0.4,19.2h-61.7c0,3.7,1,7,2.9,9.7c2,2.8,4.7,4.9,8.2,6.5
		c3.6,1.5,7.7,2.3,12.4,2.3c4.7,0,9.1-0.6,13.4-1.9c4.3-1.3,8.3-3.2,12-5.8l7.7,16c-2.6,2-5.7,3.7-9.6,5.3
		c-3.8,1.5-7.9,2.6-12.2,3.4C572.9,200.1,568.8,200.5,564.9,200.5z M543.6,147.7h38c-0.2-4.7-1.8-8.5-5-11.2
		c-3.1-2.8-7.5-4.1-13-4.1c-5.5,0-10.1,1.4-13.8,4.1C546.2,139.2,544.1,143,543.6,147.7z"/>
	<path class="lg0" d="M387.8,198.1V86.4h22.7l43.5,71.6l-9.3,0.2l41.5-71.8h22.6v111.7h-22.9l0.4-81.2l4.2,1.5l-34.1,57.7h-16.1
		L405,118.4l4-1.5l0.4,81.2H387.8z"/>
	<path class="lg0" d="M1127.6,328.4c-8.2,0-15.4-1.8-21.7-5.5c-6.3-3.7-11.3-8.5-14.9-14.6c-3.6-6.1-5.3-12.8-5.3-20.1
		c0-5.4,1-10.4,3.1-15.3c2.1-4.9,5-9.1,8.7-12.8c3.8-3.8,8.2-6.7,13.3-8.9c5.1-2.2,10.7-3.2,16.8-3.2c8.2,0,15.4,1.8,21.6,5.5
		c6.3,3.7,11.2,8.5,14.8,14.6c3.6,6.1,5.4,12.7,5.4,20.1c0,5.3-1,10.4-3.1,15.3c-2.1,4.9-5,9.2-8.7,12.9c-3.7,3.7-8.1,6.6-13.2,8.8
		C1139.3,327.3,1133.7,328.4,1127.6,328.4z M1127.6,309.4c3.9,0,7.3-0.9,10.4-2.6c3.1-1.8,5.5-4.2,7.2-7.4c1.8-3.2,2.6-7,2.6-11.3
		c0-4.4-0.9-8.1-2.6-11.3c-1.7-3.2-4.1-5.6-7.1-7.3c-3.1-1.8-6.5-2.6-10.4-2.6c-3.9,0-7.4,0.9-10.5,2.6c-3.1,1.7-5.5,4.1-7.2,7.3
		c-1.7,3.2-2.6,6.9-2.6,11.3c0,4.4,0.9,8.1,2.6,11.3c1.8,3.2,4.2,5.6,7.2,7.4C1120.2,308.5,1123.7,309.4,1127.6,309.4z"/>
	<path class="lg0" d="M1064.6,328.4c-8.1,0-14.5-2.3-19.2-6.8c-4.7-4.6-7-11.5-7-20.8v-72.3h21.9v21.9h18.9v17.6h-18.9v28.9
		c0,4.5,0.9,7.6,2.8,9.4c1.9,1.8,4.3,2.7,7.4,2.7c1.6,0,3.2-0.2,4.7-0.5c1.6-0.4,3-1,4.3-1.7l3.1,17.3c-2.3,1.3-5,2.3-8.1,3.2
		C1071.4,327.9,1068.1,328.4,1064.6,328.4z M1023,267.8v-17.6h17.6v17.6H1023z"/>
	<path class="lg0" d="M942.8,326.1v-75.9h21.9v8.6c2.9-3.8,6.3-6.6,10.3-8.3c4-1.7,8.2-2.6,12.5-2.6c7.1,0,12.9,1.4,17.4,4.2
		c4.6,2.8,8,6.3,10.2,10.7c2.3,4.4,3.4,9,3.4,13.9v49.3h-21.9v-42.4c0-4.8-1.4-8.6-4.1-11.5c-2.7-2.9-6.5-4.3-11.6-4.3
		c-3.2,0-6,0.7-8.5,2.2c-2.5,1.4-4.4,3.4-5.8,5.9c-1.4,2.6-2,5.5-2,8.9v41.2H942.8z"/>
	<path class="lg0" d="M896.1,328.4c-8.3,0-15.5-1.7-21.8-5c-6.3-3.4-11.1-8-14.7-14c-3.5-6-5.3-13-5.3-21.1c0-5.9,1-11.2,3-16.2
		c2.1-4.9,4.9-9.1,8.6-12.7c3.7-3.6,8-6.4,13-8.3c5-2,10.5-3,16.5-3c6.6,0,12.4,1.2,17.4,3.5c5.1,2.3,9.3,5.5,12.7,9.7
		c3.4,4.1,5.7,8.9,7,14.5c1.4,5.6,1.5,11.6,0.4,18.1h-58.2c0,3.5,0.9,6.6,2.7,9.2c1.9,2.6,4.4,4.7,7.7,6.2c3.4,1.5,7.3,2.2,11.7,2.2
		c4.4,0,8.6-0.6,12.6-1.8c4-1.2,7.8-3,11.3-5.5l7.3,15c-2.4,1.9-5.4,3.5-9,5c-3.6,1.4-7.4,2.5-11.5,3.2
		C903.6,328,899.8,328.4,896.1,328.4z M876,278.6h35.8c-0.2-4.5-1.7-8-4.7-10.6c-3-2.6-7-3.9-12.2-3.9c-5.2,0-9.5,1.3-13,3.9
		C878.5,270.6,876.5,274.2,876,278.6z"/>
	<path class="lg0" d="M720.6,326.1v-75.9h21.9v9.8c1.9-2.7,4.1-4.9,6.6-6.7c2.6-1.8,5.3-3.1,8.1-4c2.9-0.9,5.8-1.4,8.7-1.4
		c5.8,0,10.7,1.3,14.7,3.9c4.1,2.6,6.9,5.9,8.5,10.1c3.2-5,7.3-8.6,12.3-10.7c5-2.2,10.2-3.3,15.7-3.3c7.3,0,13,1.4,17.2,4.2
		c4.2,2.8,7.2,6.3,8.9,10.7c1.8,4.4,2.7,9,2.7,13.9v49.3h-21.9v-43c0-4.6-1.2-8.2-3.7-11c-2.4-2.8-6-4.2-10.7-4.2c-3,0-5.6,0.7-8,2
		c-2.4,1.3-4.2,3.1-5.6,5.3c-1.3,2.2-2,4.6-2,7.4v43.6h-21.9v-43c0-4.6-1.2-8.2-3.7-11c-2.5-2.8-6-4.2-10.7-4.2c-3,0-5.7,0.7-8,2
		c-2.3,1.3-4.1,3.1-5.5,5.3c-1.3,2.2-2,4.6-2,7.4v43.6H720.6z"/>
	<path class="lg0" d="M662.1,328.4c-5.1,0-9.7-1-13.7-2.9c-4-2-7.2-4.7-9.5-8.3c-2.3-3.7-3.5-8-3.5-13.1c0-4.3,1.1-8.1,3.2-11.5
		c2.2-3.4,5.4-6.1,9.8-8.3c4.4-2.2,10-3.7,16.7-4.4c6.8-0.8,14.7-0.8,23.9,0.2l0.2,14c-5.5-0.9-10.3-1.3-14.5-1.3
		c-4.2,0.1-7.7,0.5-10.5,1.3c-2.8,0.8-4.9,2-6.4,3.5c-1.5,1.5-2.2,3.3-2.2,5.5c0,3,1.1,5.2,3.3,6.8c2.2,1.6,5.2,2.3,8.9,2.3
		c3.3,0,6.2-0.6,8.8-1.7c2.6-1.2,4.7-2.8,6.2-5c1.6-2.2,2.3-4.9,2.3-8v-18.2c0-3-0.6-5.5-1.9-7.7c-1.2-2.3-3.1-4-5.7-5.2
		c-2.6-1.3-6-1.9-10.2-1.9c-3.9,0-7.8,0.6-11.7,1.8c-3.9,1.2-7.4,2.9-10.6,5.3l-5.8-15.3c4.9-3.1,10-5.4,15.5-6.8
		c5.5-1.5,10.8-2.2,16-2.2c7.1,0,13.3,1.1,18.6,3.4c5.3,2.3,9.4,5.7,12.3,10.4c3,4.7,4.4,10.6,4.4,17.8v47.3h-19.1v-8.3
		c-2.5,3.4-5.9,6-10.3,7.9C672.6,327.5,667.6,328.4,662.1,328.4z"/>
	<path class="lg0" d="M603,328.4c-8,0-15.2-1.8-21.5-5.3c-6.3-3.5-11.3-8.3-15-14.4c-3.6-6.1-5.4-12.9-5.4-20.6
		c0-5.8,1.1-11.1,3.2-15.9c2.2-4.9,5.2-9.2,9-12.8c3.9-3.7,8.5-6.5,13.7-8.5c5.2-2,10.8-3,16.9-3c5.6,0,10.7,0.8,15.4,2.3
		c4.8,1.5,9.1,3.8,12.9,6.8l-9.9,16.4c-2.4-2.2-5.1-3.8-8-4.8c-2.9-1.1-6-1.6-9.2-1.6c-4.6,0-8.5,0.8-11.8,2.5
		c-3.3,1.7-5.8,4.1-7.6,7.2c-1.8,3.2-2.6,7-2.6,11.4c0,6.7,2,11.9,5.9,15.6c4,3.8,9.3,5.6,16.2,5.6c3.7,0,7.1-0.7,10.3-2
		c3.3-1.4,6.1-3.2,8.6-5.6l9.2,16.6c-4.2,3.1-8.9,5.6-14.2,7.4C613.8,327.5,608.4,328.4,603,328.4z M598.4,359.9
		c-3.8,0-7.3-0.5-10.6-1.5c-3.2-1-6-2.2-8.4-3.7l4.2-10.2c1.6,1.5,3.7,2.5,6.5,3.2c2.8,0.7,5.3,1.1,7.6,1.1c2.1,0,3.8-0.3,5.2-0.9
		c1.4-0.6,2.1-1.6,2.1-2.9c0-1.6-1.2-2.6-3.5-3.2c-2.3-0.6-4.8-0.7-7.4-0.2l-4.4-8l4.1-10.5h11.9l-2.5,8.1c5.3,0.5,9.6,1.8,12.8,4.1
		c3.3,2.3,4.9,5.5,4.9,9.7c0,3.5-1.2,6.4-3.5,8.6c-2.3,2.2-5.2,3.8-8.6,4.8C605.2,359.4,601.8,359.9,598.4,359.9z"/>
	<path class="lg0" d="M509.9,326.1v-75.9h21.9v9.4c2.5-4.2,5.6-7.2,9.5-9c3.9-1.8,8.1-2.7,12.6-2.7c1.6,0,3.1,0.1,4.4,0.3
		c1.4,0.2,2.7,0.4,4,0.6l-2.7,22.6c-1.6-0.6-3.3-1.1-5.1-1.4c-1.8-0.4-3.6-0.5-5.3-0.5c-5.1,0-9.2,1.5-12.5,4.4
		c-3.3,3-4.9,7.2-4.9,12.6v39.5H509.9z"/>
	<path class="lg0" d="M443.1,328.4c-8,0-15.4-1.4-22.2-4.1c-6.8-2.8-12.7-6.7-17.7-11.6c-5-5-8.9-10.8-11.7-17.4
		c-2.8-6.7-4.1-13.9-4.1-21.6c0-7.8,1.4-15.1,4.1-21.7c2.8-6.7,6.7-12.5,11.7-17.4c5-5,10.9-8.8,17.7-11.6
		c6.8-2.8,14.2-4.1,22.2-4.1c8,0,15.4,1.4,22.2,4.2c6.8,2.8,12.7,6.7,17.7,11.7c5.1,5,9,10.8,11.8,17.5c2.8,6.6,4.2,13.7,4.2,21.4
		c0,7.8-1.4,15-4.2,21.6c-2.8,6.7-6.7,12.5-11.8,17.4c-5,5-10.9,8.8-17.7,11.6C458.5,327,451.1,328.4,443.1,328.4z M443.1,307.5
		c4.7,0,9-0.8,12.9-2.4c4-1.6,7.4-3.9,10.4-6.8c3-3,5.2-6.6,6.8-10.7c1.7-4.2,2.5-8.8,2.5-14c0-6.9-1.4-12.8-4.3-17.9
		c-2.9-5.1-6.7-9.1-11.6-11.9c-4.9-2.8-10.5-4.2-16.7-4.2c-4.6,0-8.9,0.8-12.9,2.4c-4,1.6-7.4,3.9-10.4,6.8c-2.9,3-5.2,6.5-6.8,10.7
		c-1.6,4.2-2.4,8.8-2.4,14c0,6.9,1.4,12.8,4.3,18c2.9,5.1,6.7,9,11.6,11.8C431.4,306.1,436.9,307.5,443.1,307.5z"/>
	<path class="lg1" d="M99.1,307.8L56.4,195.3c-0.9-2.4,0.3-5.2,2.7-6.1l5.9-2.2l-2.9-10.7l-6.9,2.6c-8.1,3.1-12.3,12.2-9.2,20.4
		l43.3,113.9c1.5,3.9,4.4,7.1,8.3,8.8c2.1,0.9,4.3,1.4,6.5,1.4c1.9,0,3.8-0.3,5.6-1l8-3.1C102.4,317,99.1,307.8,99.1,307.8z"/>
	<path class="lg2" d="M114.3,292.9L71.1,137.2c-0.7-2.5,0.8-5.1,3.3-5.8l12.8-3.5l-1.9-10.9l-13.8,3.8c-8.4,2.3-13.3,11.1-11,19.5
		l43.2,155.8c1.5,5.5,5.8,9.5,10.9,10.9c1.4,0.4,2.9,0.6,4.4,0.6c1.4,0,2.8-0.2,4.2-0.6l8.6-2.4V293l-11.5,3.2
		C117.6,296.9,115,295.5,114.3,292.9z"/>
	<path class="lg3" d="M218,56.8c-3.7-3.1-8.3-4.3-13-3.5l-102.1,18c-8.6,1.5-14.3,9.7-12.8,18.3l31.3,177.5c0.6,3.3,2.1,6.1,4.3,8.3
		c1.6,1.6,3.5,2.9,5.6,3.7c0.2,0.1,0.4-0.1,0.4-0.2v-17.3c0,0,0,0,0,0L101,87.7c-0.5-2.6,1.3-5,3.8-5.5l102.1-18
		c0.3,0,0.6-0.1,0.8-0.1c1.2,0,2.4,0.5,3.4,1.4c0.7,0.7,1.2,1.7,1.3,2.7l0.9,4.9c0,0.1,0.1,0.2,0.3,0.2h8.3c0.8,0,1.6,0,2.4,0.1
		c0.2,0,0.3-0.1,0.3-0.3l-1.2-6.5C222.7,62.8,220.9,59.2,218,56.8z"/>
	<path class="lg4" d="M158.5,324.5h135.9c0,0,0,0,0,0L158.5,324.5C158.5,324.5,158.5,324.5,158.5,324.5z"/>
	<path class="lg0" d="M306.7,157.9l-69.7-69c-3-3-6.9-4.6-11.1-4.6h-4h-63.3h-0.5c-8.7,0-15.8,7.1-15.8,15.8v208.6
		c0,8.7,7.1,15.8,15.8,15.8h0.4h136h1.1c8.7,0,15.8-7.1,15.8-15.8V169.2C311.4,165,309.7,160.9,306.7,157.9z M292.4,159.4h-46.3
		c-5.7,0-10.3-4.6-10.3-10.3v-45.7L292.4,159.4z M300.3,308.7c0,2.6-2.1,4.7-4.7,4.7H158.1c-2.6,0-4.7-2.1-4.7-4.7V100.2
		c0-2.6,2.1-4.7,4.7-4.7h66.8v53.7c0,11.8,9.6,21.3,21.3,21.3h54.1V308.7z"/>
	<path class="lg1" d="M197.5,198.2c0,3.1,2.5,5.5,5.5,5.5h58.5c3.1,0,5.5-2.5,5.5-5.5c0-3.1-2.5-5.5-5.5-5.5h-58.5
		C200,192.6,197.5,195.1,197.5,198.2z"/>
	<path class="lg2" d="M203.1,225.8c-3.1,0-5.5,2.5-5.5,5.5s2.5,5.5,5.5,5.5h69.6c3.1,0,5.5-2.5,5.5-5.5s-2.5-5.5-5.5-5.5H203.1z"/>
	<path class="lg3" d="M197.5,264.5c0,3.1,2.5,5.5,5.5,5.5h64.1c3.1,0,5.5-2.5,5.5-5.5s-2.5-5.5-5.5-5.5h-64.1
		C200,259,197.5,261.5,197.5,264.5z"/>
	<path class="lg3" d="M181,270.1L181,270.1c-3.1,0-5.5-2.5-5.5-5.5l0,0c0-3.1,2.5-5.5,5.5-5.5h0c3.1,0,5.5,2.5,5.5,5.5l0,0
		C186.5,267.6,184,270.1,181,270.1z"/>
	<path class="lg2" d="M181,236.9L181,236.9c-3.1,0-5.5-2.5-5.5-5.5l0,0c0-3.1,2.5-5.5,5.5-5.5h0c3.1,0,5.5,2.5,5.5,5.5l0,0
		C186.5,234.4,184,236.9,181,236.9z"/>
	<path class="lg1" d="M181,203.7L181,203.7c-3.1,0-5.5-2.5-5.5-5.5l0,0c0-3.1,2.5-5.5,5.5-5.5h0c3.1,0,5.5,2.5,5.5,5.5l0,0
		C186.5,201.2,184,203.7,181,203.7z"/>
</g>
</svg>
