<?xml version="1.0" encoding="utf-8"?>
<svg version="1.1" xmlns="http://www.w3.org/2000/svg" xmlns:xlink="http://www.w3.org/1999/xlink" x="0px" y="0px"
	 viewBox="0 0 375.3 375" style="enable-background:new 0 0 375.3 375;" xml:space="preserve">
<style type="text/css">
	.sy0{fill:#0675EF;}
	.sy1{fill:#00D540;}
	.sy2{fill:#CC8E06;}
	.sy3{fill:#F5F5F5;}
	.sy4{fill:#03423C;}
</style>
<g>
	<path class="sy0" d="M100.4,306.5L57.6,194c-0.9-2.4,0.3-5.2,2.7-6.1l5.9-2.2l-2.9-10.7l-6.9,2.6c-8.1,3.1-12.3,12.2-9.2,20.4
		l43.3,113.9c1.5,3.9,4.4,7.1,8.3,8.8c2.1,0.9,4.3,1.4,6.5,1.4c1.9,0,3.8-0.3,5.6-1l8-3.1C103.6,315.7,100.4,306.5,100.4,306.5z"/>
	<path class="sy1" d="M115.6,291.7L72.4,135.9c-0.7-2.5,0.8-5.1,3.3-5.8l12.8-3.5l-1.9-10.9l-13.8,3.8c-8.4,2.3-13.3,11.1-11,19.5
		l43.2,155.8c1.5,5.5,5.8,9.5,10.9,10.9c1.4,0.4,2.9,0.6,4.4,0.6c1.4,0,2.8-0.2,4.2-0.6l8.6-2.4v-11.5l-11.5,3.2
		C118.9,295.7,116.3,294.2,115.6,291.7z"/>
	<path class="sy2" d="M219.2,55.5c-3.7-3.1-8.3-4.3-13-3.5L104.2,70c-8.6,1.5-14.3,9.7-12.8,18.3l31.3,177.5
		c0.6,3.3,2.1,6.1,4.3,8.3c1.6,1.6,3.5,2.9,5.6,3.7c0.2,0.1,0.4-0.1,0.4-0.2v-17.3c0,0,0,0,0,0L102.3,86.4c-0.5-2.6,1.3-5,3.8-5.5
		l102.1-18c0.3,0,0.6-0.1,0.8-0.1c1.2,0,2.4,0.5,3.4,1.4c0.7,0.7,1.2,1.7,1.3,2.7l0.9,4.9c0,0.1,0.1,0.2,0.3,0.2h8.3
		c0.8,0,1.6,0,2.4,0.1c0.2,0,0.3-0.1,0.3-0.3l-1.2-6.5C224,61.5,222.2,58,219.2,55.5z"/>
	<path class="sy3" d="M159.8,323.3h135.9c0,0,0,0,0,0L159.8,323.3C159.8,323.3,159.8,323.3,159.8,323.3z"/>
	<path class="sy4" d="M307.9,156.7l-69.7-69c-3-3-6.9-4.6-11.1-4.6h-4h-63.3h-0.5c-8.7,0-15.8,7.1-15.8,15.8v208.6
		c0,8.7,7.1,15.8,15.8,15.8h0.4h136h1.1c8.7,0,15.8-7.1,15.8-15.8V167.9C312.6,163.7,310.9,159.6,307.9,156.7z M293.7,158.1h-46.3
		c-5.7,0-10.3-4.6-10.3-10.3v-45.7L293.7,158.1z M301.6,307.5c0,2.6-2.1,4.7-4.7,4.7H159.3c-2.6,0-4.7-2.1-4.7-4.7V98.9
		c0-2.6,2.1-4.7,4.7-4.7h66.8v53.7c0,11.8,9.6,21.3,21.3,21.3h54.1V307.5z"/>
	<path class="sy0" d="M198.8,196.9c0,3.1,2.5,5.5,5.5,5.5h58.5c3.1,0,5.5-2.5,5.5-5.5c0-3.1-2.5-5.5-5.5-5.5h-58.5
		C201.3,191.4,198.8,193.8,198.8,196.9z"/>
	<path class="sy1" d="M204.3,224.6c-3.1,0-5.5,2.5-5.5,5.5s2.5,5.5,5.5,5.5h69.6c3.1,0,5.5-2.5,5.5-5.5s-2.5-5.5-5.5-5.5H204.3z"/>
	<path class="sy2" d="M198.8,263.3c0,3.1,2.5,5.5,5.5,5.5h64.1c3.1,0,5.5-2.5,5.5-5.5s-2.5-5.5-5.5-5.5h-64.1
		C201.3,257.7,198.8,260.2,198.8,263.3z"/>
	<path class="sy2" d="M182.2,268.8L182.2,268.8c-3.1,0-5.5-2.5-5.5-5.5l0,0c0-3.1,2.5-5.5,5.5-5.5h0c3.1,0,5.5,2.5,5.5,5.5l0,0
		C187.8,266.3,185.3,268.8,182.2,268.8z"/>
	<path class="sy1" d="M182.2,235.6L182.2,235.6c-3.1,0-5.5-2.5-5.5-5.5l0,0c0-3.1,2.5-5.5,5.5-5.5h0c3.1,0,5.5,2.5,5.5,5.5l0,0
		C187.8,233.1,185.3,235.6,182.2,235.6z"/>
	<path class="sy0" d="M182.2,202.4L182.2,202.4c-3.1,0-5.5-2.5-5.5-5.5l0,0c0-3.1,2.5-5.5,5.5-5.5h0c3.1,0,5.5,2.5,5.5,5.5l0,0
		C187.8,200,185.3,202.4,182.2,202.4z"/>
</g>
</svg>
